{"title":"Witchmaster.General.2009.DVDRip.XViD-SPRiNTER","uid":5816123,"size":726048587,"categoryP":"video","categoryS":"movies","magnet":"?xt=urn:btih:d022a8069a3a4a2b6517f3a6f542e8d8938b0452&amp;dn=Witchmaster.General.2009.DVDRip.XViD-SPRiNTER&amp;tr=udp%3A%2F%2Ftracker.openbittorrent.com%3A80&amp;tr=udp%3A%2F%2Fopen.demonii.com%3A1337&amp;tr=udp%3A%2F%2Ftracker.coppersurfer.tk%3A6969&amp;tr=udp%3A%2F%2Fexodus.desync.com%3A6969","seeders":0,"leechers":0,"uploader":"TvTeam","files":4,"time":1283835438,"description":". \n  &lt;a href=&quot;\nhttp://www.torrentday.com/&quot; rel=&quot;nofollow&quot; target=&quot;_NEW&quot;&gt;\nhttp://www.torrentday.com/&lt;/a&gt;        :     The Hottest Private Tracker On The Net!!!\n\n\n               www . TorrentDay . Com \n(((((((((((((= Enjoy No RAR releases =))))))))))))))))))))\n\n\n...................................NFO:....................................\n\n.\n                                                     \n                                                   \n                                                         \n                                                          \n                                                           \n                                                          \n                                                          \n                                                          \n                                                           \n                                                         \n                                                          \n                                                        \n                                                      \n                                     \n                                                 \n                                                   \n                                             \n                                              \n                                                     \n                                                      \n                                                      \n                                                      \n                                                    \n                                                     \n                                                   \n                                                     \n                                                     \n                                                      \n                                                     \n                                                      \n                                                    \n                 ARTiCHOKE                        \n                                                \n                      \n                                                        \n                                                      \n                                                      \n                                               \n                                          \n                                                   \n                                            \n                                                    \n                                                       \n                                                        \n                                                      \n                                                \n                                                        \n                                                 \n                                              \n                                                  \n                                                \n                                                  \n                                        \n\n      \n                                \n      SPRiNTER proudly presents...     \n                                \n      \n \nWitchmaster.General.2009.DVDRip.XViD-SPRiNTER\nhttp://www.imdb.com/title/tt1231600/\n\n Date: 2010.09\n\n Genre: Horror\n Plot: An evil Voodoo Witchdoctor runs a murder-for-hire business. He'll do away with your \n       unfaithful wife, your unappreciative boss, or your back-stabbing friend - but the price is your soul!\n\n Cast:\n\tPhil Lewis\t ... \tDr. Gorgon\n\tColleen Marie\t... \tRose\n\tVic Martino\t... \tInspector Keith Stone\n \tTatyana Kot\t... \tLorelei Damien\n\tBud Stafford\t... \tDr. John Harrison\n\tSuzi Lorraine\t... \tDelia Morgan\n\tCharles Parshley\t... \tTom Morgan\n\tAnastasia Bosakowski-Chater\t... \tCheryl\n\tDennis Newman\t... \tBill Bixby\n\n\n      \n                 \n      Release notes     \n                 \n      \n\n\t   \n\n\n      \n           \n     Greetings    \n           \n      \n\n\nNTX aAF FiCO HNR CiNEFiLE AEN HUMANiSM\n\n\n      \n           \n      Details     \n           \n      \n\nFormat                           : AVI\nFormat/Info                      : Audio Video Interleave\nFile size                        : 692 MiB\nDuration                         : 1h 33mn\nOverall bit rate                 : 1 040 Kbps\nWriting application              : Nandub v1.0rc2\nWriting library                  : Nandub build 1852/release\n\nVideo\nID                               : 0\nFormat                           : MPEG-4 Visual\nFormat profile                   : AdvancedSimple@L5\nFormat settings, BVOP            : No\nFormat settings, QPel            : No\nFormat settings, GMC             : No warppoints\nFormat settings, Matrix          : Default (H.263)\nCodec ID                         : XVID\nCodec ID/Hint                    : XviD\nDuration                         : 1h 33mn\nBit rate                         : 964 Kbps\nWidth                            : 576 pixels\nHeight                           : 320 pixels\nDisplay aspect ratio             : 16:9\nFrame rate                       : 29.970 fps\nResolution                       : 24 bits\nColorimetry                      : 4:2:0\nScan type                        : Progressive\nBits/(Pixel*Frame)               : 0.174\nStream size                      : 644 MiB (93%)\nWriting library                  : XviD 1.2.1 (UTC 2008-12-04)\n\nAudio\nID                               : 1\nFormat                           : MPEG Audio\nFormat version                   : Version 1\nFormat profile                   : Layer 3\nCodec ID                         : 55\nCodec ID/Hint                    : MP3\nDuration                         : 1h 33mn\nBit rate mode                    : Variable\nBit rate                         : 62.4 Kbps\nMinimum bit rate                 : 32.0 Kbps\nChannel(s)                       : 1 channel\nSampling rate                    : 48.0 KHz\nResolution                       : 16 bits\nStream size                      : 41.7 MiB (6%)\nAlignment                        : Aligned on interleaves\nInterleave, duration             : 24 ms (0.72 video frame)\nInterleave, preload duration     : 283 ms\nWriting library                  : LAME3.98r\nEncoding settings                : -m m -V 6 -q 0 -lowpass 15.5 --vbr-new -b 32","torrent":{"xt":"urn:btih:d022a8069a3a4a2b6517f3a6f542e8d8938b0452","amp;dn":"Witchmaster.General.2009.DVDRip.XViD-SPRiNTER","amp;tr":["udp%3A%2F%2Ftracker.openbittorrent.com%3A80","udp%3A%2F%2Fopen.demonii.com%3A1337","udp%3A%2F%2Ftracker.coppersurfer.tk%3A6969","udp%3A%2F%2Fexodus.desync.com%3A6969"],"infoHash":"d022a8069a3a4a2b6517f3a6f542e8d8938b0452","infoHashBuffer":{"type":"Buffer","data":[208,34,168,6,154,58,74,43,101,23,243,166,245,66,232,216,147,139,4,82]},"announce":[],"urlList":[]}}